<?xml version="1.0" encoding="UTF-8"?>
<svg id="Camada_1" data-name="Camada 1" xmlns="http://www.w3.org/2000/svg" xmlns:xlink="http://www.w3.org/1999/xlink" viewBox="0 0 720 720">
  <defs>
    <style>
      .cls-1 {
        fill: none;
      }

      .cls-2 {
        fill: url(#Gradiente_sem_nome_560);
      }

      .cls-3 {
        fill: #fff;
      }
    </style>
    <linearGradient id="Gradiente_sem_nome_560" data-name="Gradiente sem nome 560" x1="61.23" y1="319.2" x2="202.57" y2="400.8" gradientUnits="userSpaceOnUse">
      <stop offset=".33" stop-color="#f33"/>
      <stop offset=".67" stop-color="#ffc100"/>
    </linearGradient>
  </defs>
  <rect class="cls-1" width="720" height="720"/>
  <path class="cls-2" d="M73.18,301.34c-16.2,16.22-16.18,42.49.03,58.69l58.72,58.66c9.95,9.94,23.69,13.77,36.56,11.5,8.1-1.42,15.86-5.26,22.12-11.53,6.26-6.26,10.09-14.03,11.5-22.13,2.27-12.88-1.58-26.62-11.53-36.56l-58.72-58.66c-16.21-16.2-42.49-16.18-58.69.03ZM178.98,373.42c9.3,9.29,9.3,24.35.02,33.64-9.29,9.3-24.35,9.3-33.65.02l-24.01-23.98,33.63-33.66,24.01,23.98ZM142.44,336.92l-33.63,33.66-23.1-23.07c-9.29-9.28-9.3-24.34,0-33.64,9.28-9.29,24.34-9.3,33.63-.02l23.1,23.07Z"/>
  <rect class="cls-3" x="552.51" y="403.78" width="14.63" height="14.63"/>
  <g>
    <path class="cls-3" d="M327.9,366.23h45.95v-35.43c0-16.13-13.08-29.2-29.2-29.2s-29.2,13.08-29.2,29.2v58.41c0,9.9,4.93,18.65,12.46,23.92,4.74,3.33,10.51,5.28,16.74,5.28s12-1.95,16.74-5.28c7.54-5.28,12.46-14.03,12.46-23.93v-10.51h-12.46v11.42c0,9.25-7.49,16.74-16.74,16.74s-16.74-7.49-16.74-16.74v-23.88ZM327.9,330.8c0-9.24,7.5-16.74,16.74-16.74s16.74,7.5,16.74,16.74v22.97h-33.48v-22.97Z"/>
    <path class="cls-3" d="M431.49,341.31v-10.51c0-9.25-7.5-16.74-16.74-16.74s-16.74,7.5-16.74,16.74v22.97h45.95v35.44c0,9.9-4.93,18.64-12.46,23.92-4.74,3.33-10.51,5.28-16.74,5.28s-12.01-1.95-16.74-5.28c-7.53-5.28-12.46-14.03-12.46-23.92v-10.51h12.46v11.42c0,9.25,7.5,16.74,16.74,16.74s16.74-7.5,16.74-16.74v-23.88h-45.95v-35.43c0-16.13,13.07-29.21,29.2-29.21s29.2,13.08,29.2,29.21v10.51h-12.46Z"/>
    <rect class="cls-3" x="455.65" y="301.59" width="12.47" height="116.81"/>
    <path class="cls-3" d="M525.76,341.31v-10.51c0-9.25-7.5-16.74-16.74-16.74s-16.74,7.5-16.74,16.74v22.97h45.95v35.44c0,9.9-4.93,18.64-12.46,23.92-4.74,3.33-10.51,5.28-16.74,5.28s-12.01-1.95-16.74-5.28c-7.53-5.28-12.46-14.03-12.46-23.92v-10.51h12.46v11.42c0,9.25,7.5,16.74,16.74,16.74s16.74-7.5,16.74-16.74v-23.88h-45.95v-35.43c0-16.13,13.07-29.21,29.2-29.21s29.2,13.08,29.2,29.21v10.51h-12.46Z"/>
    <rect class="cls-3" x="652.43" y="304.56" width="6.53" height="110.88"/>
    <path class="cls-3" d="M303.74,331.13v87.27h-12.46v-87.41c0-9.35-7.58-16.94-16.94-16.94h-16.54v104.35h-12.47v-116.81h28.87c16.31,0,29.54,13.22,29.54,29.54Z"/>
    <path class="cls-3" d="M628.8,415.44v-52.18h-40.29v52.18h-6.09v-84.65c0-14.46,11.77-26.23,26.23-26.23s26.24,11.77,26.24,26.23v84.65h-6.09ZM608.65,310.65c-11.1,0-20.14,9.03-20.14,20.14v25.94h40.29v-25.94c0-11.1-9.04-20.14-20.15-20.14Z"/>
  </g>
</svg>